<mxfile host="app.diagrams.net" agent="Mozilla/5.0 (Windows NT 10.0; Win64; x64; rv:130.0) Gecko/20100101 Firefox/130.0" version="24.7.16">
  <diagram name="Page-1" id="RCVozfFSm3IIMvb2CCdZ">
    <mxGraphModel dx="989" dy="514" grid="1" gridSize="10" guides="1" tooltips="1" connect="1" arrows="1" fold="1" page="1" pageScale="1" pageWidth="850" pageHeight="1100" math="0" shadow="0">
      <root>
        <mxCell id="0" />
        <mxCell id="1" parent="0" />
        <mxCell id="CTGB0mGhVegCTcZwjLvV-5" value="" style="edgeStyle=orthogonalEdgeStyle;rounded=0;orthogonalLoop=1;jettySize=auto;html=1;" edge="1" parent="1" source="CTGB0mGhVegCTcZwjLvV-1" target="CTGB0mGhVegCTcZwjLvV-4">
          <mxGeometry relative="1" as="geometry" />
        </mxCell>
        <mxCell id="CTGB0mGhVegCTcZwjLvV-1" value="&lt;div&gt;Start&lt;/div&gt;&lt;div&gt;Welcome message&lt;br&gt;&lt;/div&gt;" style="rounded=0;whiteSpace=wrap;html=1;" vertex="1" parent="1">
          <mxGeometry x="348" y="50" width="155" height="90" as="geometry" />
        </mxCell>
        <mxCell id="CTGB0mGhVegCTcZwjLvV-7" value="" style="edgeStyle=orthogonalEdgeStyle;rounded=0;orthogonalLoop=1;jettySize=auto;html=1;" edge="1" parent="1" source="CTGB0mGhVegCTcZwjLvV-4" target="CTGB0mGhVegCTcZwjLvV-6">
          <mxGeometry relative="1" as="geometry" />
        </mxCell>
        <mxCell id="CTGB0mGhVegCTcZwjLvV-4" value="Provide Number Range" style="ellipse;whiteSpace=wrap;html=1;rounded=0;" vertex="1" parent="1">
          <mxGeometry x="385.5" y="225" width="80" height="80" as="geometry" />
        </mxCell>
        <mxCell id="CTGB0mGhVegCTcZwjLvV-9" value="" style="edgeStyle=orthogonalEdgeStyle;rounded=0;orthogonalLoop=1;jettySize=auto;html=1;" edge="1" parent="1" source="CTGB0mGhVegCTcZwjLvV-6" target="CTGB0mGhVegCTcZwjLvV-8">
          <mxGeometry relative="1" as="geometry" />
        </mxCell>
        <mxCell id="CTGB0mGhVegCTcZwjLvV-11" value="" style="edgeStyle=orthogonalEdgeStyle;rounded=0;orthogonalLoop=1;jettySize=auto;html=1;" edge="1" parent="1" source="CTGB0mGhVegCTcZwjLvV-6" target="CTGB0mGhVegCTcZwjLvV-10">
          <mxGeometry relative="1" as="geometry" />
        </mxCell>
        <mxCell id="CTGB0mGhVegCTcZwjLvV-29" value="" style="edgeStyle=orthogonalEdgeStyle;rounded=0;orthogonalLoop=1;jettySize=auto;html=1;" edge="1" parent="1" source="CTGB0mGhVegCTcZwjLvV-6" target="CTGB0mGhVegCTcZwjLvV-28">
          <mxGeometry relative="1" as="geometry" />
        </mxCell>
        <mxCell id="CTGB0mGhVegCTcZwjLvV-6" value="Hard | Easy" style="rhombus;whiteSpace=wrap;html=1;rounded=0;" vertex="1" parent="1">
          <mxGeometry x="385.5" y="385" width="80" height="80" as="geometry" />
        </mxCell>
        <mxCell id="CTGB0mGhVegCTcZwjLvV-8" value="10 attempts" style="whiteSpace=wrap;html=1;rounded=0;" vertex="1" parent="1">
          <mxGeometry x="525.5" y="395" width="120" height="60" as="geometry" />
        </mxCell>
        <mxCell id="CTGB0mGhVegCTcZwjLvV-10" value="5 attempts" style="whiteSpace=wrap;html=1;rounded=0;" vertex="1" parent="1">
          <mxGeometry x="205.5" y="395" width="120" height="60" as="geometry" />
        </mxCell>
        <mxCell id="CTGB0mGhVegCTcZwjLvV-28" value="Guess &amp;gt; number = Guess is higher&lt;br&gt;&lt;br&gt;Guess &amp;lt; number = Guess is lower" style="shape=step;perimeter=stepPerimeter;whiteSpace=wrap;html=1;fixedSize=1;rounded=0;" vertex="1" parent="1">
          <mxGeometry x="332" y="550" width="185.5" height="95" as="geometry" />
        </mxCell>
      </root>
    </mxGraphModel>
  </diagram>
</mxfile>
